<svg xmlns="http://www.w3.org/2000/svg" viewBox="0 0 720 480"><rect width="720" height="480" fill="#F7B817"/><defs><pattern id="grid" width="40" height="40" patternUnits="userSpaceOnUse"><path d="M40 0H0V40" fill="none" stroke="#073F91" stroke-opacity=".06"/></pattern></defs><rect width="720" height="480" fill="url(#grid)"/><path d="M455 0h265v480H455z" fill="#F2AC12"/><circle cx="108" cy="380" r="155" fill="#FFF8E8"/><g transform="translate(210 60)"><path d="M140 0v55" stroke="#073F91" stroke-width="12"/><circle cx="140" cy="12" r="16" fill="#F45B4F"/><rect x="40" y="60" width="200" height="150" rx="36" fill="#073F91"/><circle cx="96" cy="118" r="20" fill="#FFF8E8"/><circle cx="184" cy="118" r="20" fill="#FFF8E8"/><path d="M99 174h81" stroke="#24BCE2" stroke-width="12"/><path d="M120 212h40v22h-40zM60 242h160v95H60z" fill="#073F91"/><path d="M26 245L0 310m254-65 36 50M93 337v60m92-60v60" stroke="#073F91" stroke-width="22"/><circle cx="140" cy="283" r="15" fill="#F45B4F"/></g><path d="M560 80v50m-25-25h50" stroke="#073F91" stroke-width="5"/></svg>
